{
  "source": "C:\\Users\\Peter\\Desktop\\stuff\\MIUN\\quantitative_research\\video_compression\\videos\\BVI-HD\\BVI-HD_CDVL_videos\\ORIG\\KineticFastPainting_1920x1080_60fps.mp4",
  "output": "C:\\Users\\Peter\\Desktop\\stuff\\MIUN\\quantitative_research\\video_compression\\compressed_videos\\BVI-HD\\h264\\1.5\\KineticFastPainting_1920x1080_60fps_h264.mp4",
  "codec": "h264",
  "ok": "Input #0, mov,mp4,m4a,3gp,3g2,mj2, from 'C:\\Users\\Peter\\Desktop\\stuff\\MIUN\\quantitative_research\\video_compression\\videos\\BVI-HD\\BVI-HD_CDVL_videos\\ORIG\\KineticFastPainting_1920x1080_60fps.mp4':\n  Metadata:\n    major_brand     : isom\n    minor_version   : 512\n    compatible_brands: isomiso2avc1mp41\n    encoder         : Lavf54.28.101\n  Duration: 00:00:05.00, start: 0.000000, bitrate: 477980 kb/s\n  Stream #0:0[0x1](und): Video: h264 (High 4:4:4 Predictive) (avc1 / 0x31637661), yuv420p(progressive), 1920x1080, 477974 kb/s, 60 fps, 60 tbr, 60 tbn (default)\n    Metadata:\n      handler_name    : VideoHandler\n      vendor_id       : [0][0][0][0]\n[out#0/mp4 @ 000001f1c95f7900] Codec AVOption b:a (set bitrate (in bits/s)) has not been used for any stream. The most likely reason is either wrong type (e.g. a video option with no video streams) or that it is a private option of some decoder which was not actually used for any stream.\nStream mapping:\n  Stream #0:0 -> #0:0 (h264 (native) -> h264 (libx264))\nPress [q] to stop, [?] for help\n[libx264 @ 000001f1c9570d80] using cpu capabilities: MMX2 SSE2Fast SSSE3 SSE4.2 AVX FMA3 BMI2 AVX2\n[libx264 @ 000001f1c9570d80] profile High, level 5.0, 4:2:0, 8-bit\n[libx264 @ 000001f1c9570d80] 264 - core 165 r3222 b35605a - H.264/MPEG-4 AVC codec - Copyleft 2003-2025 - http://www.videolan.org/x264.html - options: cabac=1 ref=5 deblock=1:0:0 analyse=0x3:0x113 me=hex subme=8 psy=1 psy_rd=1.00:0.00 mixed_ref=1 me_range=16 chroma_me=1 trellis=2 8x8dct=1 cqm=0 deadzone=21,11 fast_pskip=1 chroma_qp_offset=-2 threads=18 lookahead_threads=3 sliced_threads=0 nr=0 decimate=1 interlaced=0 bluray_compat=0 constrained_intra=0 bframes=3 b_pyramid=2 b_adapt=1 b_bias=0 direct=3 weightb=1 open_gop=0 weightp=2 keyint=250 keyint_min=25 scenecut=40 intra_refresh=0 rc_lookahead=50 rc=cbr mbtree=1 bitrate=1500 ratetol=1.0 qcomp=0.60 qpmin=0 qpmax=69 qpstep=4 vbv_maxrate=1500 vbv_bufsize=1500 nal_hrd=none filler=0 ip_ratio=1.40 aq=1:1.00\nOutput #0, mp4, to 'C:\\Users\\Peter\\Desktop\\stuff\\MIUN\\quantitative_research\\video_compression\\compressed_videos\\BVI-HD\\h264\\1.5\\KineticFastPainting_1920x1080_60fps_h264.mp4':\n  Metadata:\n    major_brand     : isom\n    minor_version   : 512\n    compatible_brands: isomiso2avc1mp41\n    encoder         : Lavf62.3.100\n  Stream #0:0(und): Video: h264 (avc1 / 0x31637661), yuv420p(tv, progressive), 1920x1080, q=2-31, 1500 kb/s, 60 fps, 15360 tbn (default)\n    Metadata:\n      encoder         : Lavc62.11.100 libx264\n      handler_name    : VideoHandler\n      vendor_id       : [0][0][0][0]\n    Side data:\n      cpb: bitrate max/min/avg: 1500000/0/1500000 buffer size: 1500000 vbv_delay: N/A\nframe=    0 fps=0.0 q=0.0 size=       0KiB time=N/A bitrate=N/A speed=N/A elapsed=0:00:00.51    \nframe=    0 fps=0.0 q=0.0 size=       0KiB time=N/A bitrate=N/A speed=N/A elapsed=0:00:01.07    \nframe=    0 fps=0.0 q=0.0 size=       0KiB time=N/A bitrate=N/A speed=N/A elapsed=0:00:01.67    \nframe=   12 fps=5.3 q=57.0 size=       0KiB time=00:00:00.11 bitrate=   3.3kbits/s speed=0.0517x elapsed=0:00:02.25    \nframe=   31 fps= 11 q=57.0 size=       0KiB time=00:00:00.48 bitrate=   0.8kbits/s speed=0.169x elapsed=0:00:02.85    \nframe=   48 fps= 14 q=57.0 size=       0KiB time=00:00:00.75 bitrate=   0.5kbits/s speed=0.218x elapsed=0:00:03.43    \nframe=   69 fps= 17 q=58.0 size=     256KiB time=00:00:01.08 bitrate=1936.2kbits/s speed=0.27x elapsed=0:00:04.01    \nframe=   97 fps= 21 q=58.0 size=     256KiB time=00:00:01.51 bitrate=1383.0kbits/s speed=0.329x elapsed=0:00:04.61    \nframe=  115 fps= 22 q=57.0 size=     256KiB time=00:00:01.85 bitrate=1133.8kbits/s speed=0.355x elapsed=0:00:05.21    \nframe=  137 fps= 24 q=57.0 size=     256KiB time=00:00:02.21 bitrate= 946.3kbits/s speed=0.382x elapsed=0:00:05.79    \nframe=  156 fps= 24 q=57.0 size=     512KiB time=00:00:02.55 bitrate=1645.0kbits/s speed=0.399x elapsed=0:00:06.39    \nframe=  179 fps= 25 q=58.0 size=     512KiB time=00:00:02.88 bitrate=1454.8kbits/s speed=0.41x elapsed=0:00:07.02    \nframe=  200 fps= 26 q=58.0 size=     512KiB time=00:00:03.30 bitrate=1271.1kbits/s speed=0.433x elapsed=0:00:07.62    \nframe=  225 fps= 28 q=57.0 size=     512KiB time=00:00:03.70 bitrate=1133.7kbits/s speed=0.453x elapsed=0:00:08.17    \nframe=  256 fps= 29 q=58.0 size=     768KiB time=00:00:04.23 bitrate=1486.3kbits/s speed=0.486x elapsed=0:00:08.71    \nframe=  298 fps= 32 q=-1.0 size=     768KiB time=00:00:04.91 bitrate=1279.7kbits/s speed=0.532x elapsed=0:00:09.24    \n[mp4 @ 000001f1c95f7a00] Starting second pass: moving the moov atom to the beginning of the file\n[out#0/mp4 @ 000001f1c95f7900] video:979KiB audio:0KiB subtitle:0KiB other streams:0KiB global headers:0KiB muxing overhead: 0.340710%\nframe=  300 fps= 32 q=-1.0 Lsize=     982KiB time=00:00:04.96 bitrate=1620.0kbits/s speed=0.535x elapsed=0:00:09.28    \n[libx264 @ 000001f1c9570d80] frame I:2     Avg QP:48.63  size: 13388\n[libx264 @ 000001f1c9570d80] frame P:210   Avg QP:50.96  size:  3957\n[libx264 @ 000001f1c9570d80] frame B:88    Avg QP:50.98  size:  1634\n[libx264 @ 000001f1c9570d80] consecutive B-frames: 50.7% 30.0%  2.0% 17.3%\n[libx264 @ 000001f1c9570d80] mb I  I16..4: 65.6% 34.4%  0.0%\n[libx264 @ 000001f1c9570d80] mb P  I16..4: 15.2% 10.2%  0.0%  P16..4: 11.1%  0.2%  0.4%  0.0%  0.0%    skip:62.9%\n[libx264 @ 000001f1c9570d80] mb B  I16..4:  0.1%  0.0%  0.0%  B16..8:  9.2%  0.1%  0.0%  direct: 6.5%  skip:84.1%  L0:46.9% L1:52.8% BI: 0.3%\n[libx264 @ 000001f1c9570d80] 8x8 transform intra:39.9% inter:99.2%\n[libx264 @ 000001f1c9570d80] direct mvs  spatial:89.8% temporal:10.2%\n[libx264 @ 000001f1c9570d80] coded y,uvDC,uvAC intra: 0.6% 39.2% 0.1% inter: 0.1% 6.3% 0.0%\n[libx264 @ 000001f1c9570d80] i16 v,h,dc,p: 68% 23%  3%  5%\n[libx264 @ 000001f1c9570d80] i8 v,h,dc,ddl,ddr,vr,hd,vl,hu:  1%  1% 95%  1%  1%  1%  0%  0%  0%\n[libx264 @ 000001f1c9570d80] i4 v,h,dc,ddl,ddr,vr,hd,vl,hu: 13% 19%  0% 15% 17%  4%  9% 16%  6%\n[libx264 @ 000001f1c9570d80] i8c dc,h,v,p: 94%  4%  3%  0%\n[libx264 @ 000001f1c9570d80] Weighted P-Frames: Y:32.9% UV:14.8%\n[libx264 @ 000001f1c9570d80] ref P L0: 35.0%  0.4% 20.7% 13.9% 15.0% 12.3%  2.9%\n[libx264 @ 000001f1c9570d80] ref B L0: 55.1% 19.2% 21.1%  4.6%\n[libx264 @ 000001f1c9570d80] ref B L1: 93.0%  7.0%\n[libx264 @ 000001f1c9570d80] kb/s:1602.49\n",
  "seconds": 9.665638446807861,
  "probe_out": {}
}